<?xml version="1.0" standalone="no"?>
<!DOCTYPE svg PUBLIC "-//W3C//DTD SVG 20010904//EN"
 "http://www.w3.org/TR/2001/REC-SVG-20010904/DTD/svg10.dtd">
<svg version="1.0" xmlns="http://www.w3.org/2000/svg"
 width="200.000000pt" height="200.000000pt" viewBox="0 0 200.000000 200.000000"
 preserveAspectRatio="xMidYMid meet">

<g transform="translate(0.000000,200.000000) scale(0.100000,-0.100000)"
fill="#000000" stroke="none">
<path d="M920 1883 c-234 -29 -436 -168 -535 -368 -57 -115 -83 -253 -53 -283
16 -16 63 -15 75 1 5 6 17 47 26 89 85 406 544 585 882 344 65 -47 138 -134
173 -208 23 -47 52 -150 52 -184 0 -45 62 -70 94 -38 33 32 10 150 -55 283
-77 157 -234 287 -409 337 -78 23 -190 35 -250 27z"/>
<path d="M871 1644 c-151 -40 -266 -153 -312 -307 -20 -63 -20 -69 -5 -92 11
-17 26 -25 45 -25 36 0 45 11 64 80 45 157 184 257 342 248 152 -10 271 -109
310 -259 8 -29 20 -56 27 -60 23 -15 54 -10 73 11 16 18 17 26 7 71 -57 246
-309 398 -551 333z"/>
<path d="M905 1424 c-71 -26 -144 -119 -130 -164 8 -26 41 -43 68 -36 12 3 30
20 40 39 49 90 155 88 207 -5 17 -30 27 -38 50 -38 75 0 78 68 5 149 -59 65
-154 87 -240 55z"/>
<path d="M217 1082 c-15 -16 -17 -49 -17 -259 0 -220 2 -241 18 -256 17 -16
85 -17 769 -17 714 0 751 1 766 18 15 16 17 49 17 256 0 144 -4 245 -10 257
-10 19 -30 19 -769 19 -722 0 -759 -1 -774 -18z m1443 -257 l0 -165 -675 0
-675 0 0 165 0 165 675 0 675 0 0 -165z"/>
<path d="M1117 862 c-22 -24 -21 -55 1 -75 23 -21 41 -21 70 -1 27 18 29 55 4
77 -24 22 -55 21 -75 -1z"/>
<path d="M1286 864 c-9 -8 -16 -26 -16 -39 0 -46 23 -55 134 -55 114 0 139 10
139 55 0 45 -25 55 -139 55 -80 0 -106 -3 -118 -16z"/>
<path d="M1440 345 l0 -125 25 0 c14 0 25 5 25 12 0 9 3 9 12 0 17 -17 69 -15
95 3 28 20 46 75 34 106 -18 49 -71 76 -115 60 -25 -10 -26 -10 -26 29 0 36
-3 40 -25 40 l-25 0 0 -125z m128 3 c19 -19 15 -66 -7 -78 -27 -14 -37 -13
-55 6 -32 31 -14 84 29 84 12 0 26 -5 33 -12z"/>
<path d="M373 436 c-42 -35 -58 -85 -43 -131 6 -19 25 -46 43 -61 27 -23 38
-26 85 -22 31 3 60 12 70 21 15 16 15 18 0 33 -14 15 -18 15 -41 0 -49 -33
-107 6 -107 70 0 54 62 88 107 59 23 -16 27 -16 41 -1 15 15 15 17 0 33 -10 9
-39 18 -70 21 -47 4 -58 1 -85 -22z"/>
<path d="M562 343 l3 -118 25 0 c21 0 26 5 28 33 3 31 5 32 48 32 37 0 51 6
75 29 31 32 34 45 19 86 -13 35 -65 55 -140 55 l-61 0 3 -117z m146 39 c5 -33
-15 -52 -54 -52 -33 0 -34 1 -34 41 l0 40 43 -3 c35 -3 43 -7 45 -26z"/>
<path d="M790 340 l0 -120 90 0 c89 0 90 0 90 25 0 24 -2 25 -65 25 -63 0 -65
1 -65 25 0 24 3 25 55 25 48 0 55 3 55 19 0 17 -8 20 -52 23 -49 3 -53 5 -53
28 0 24 3 25 63 28 54 3 62 6 62 22 0 18 -7 20 -90 20 l-90 0 0 -120z"/>
<path d="M1072 343 l3 -118 79 -3 c52 -2 82 1 86 9 6 8 13 8 28 0 27 -14 65
-14 80 1 9 9 12 9 12 0 0 -7 11 -12 25 -12 24 0 25 2 25 66 0 78 -9 98 -51
113 -32 11 -109 -1 -109 -17 1 -19 19 -27 59 -27 27 0 46 -5 48 -12 3 -9 -7
-13 -34 -13 -42 0 -83 -23 -83 -46 0 -10 -14 -14 -55 -14 l-55 0 0 79 c0 96
-5 111 -36 111 l-25 0 3 -117z m288 -58 c0 -18 -34 -37 -54 -29 -16 6 -21 26
-9 37 13 14 63 7 63 -8z"/>
</g>
</svg>
